#!OML:ASF Y:\EmotionMaleHayes\Project 1\Capture day 1\Session 1\Male1.ASF
:FULLY-SPECIFIED
:DEGREES
672
root 24.4746 17.0408 -0.328441 606.084 100.044 611.038
lowerback 4.9605 2.66595 -10.7628
upperback 0.880382 3.03635 -3.57428
thorax -2.22012 1.63502 2.07299
lowerneck -23.1912 2.10593 3.35065
upperneck 17.6201 2.04676 -1.19694
head 9.41722 1.04932 -0.662102
rclavicle 1.37658e-014 -3.4191e-014
rhumerus -39.3052 12.1506 -93.3167
rradius 31.0761
rwrist 4.31885
rhand -9.95234 -32.2224
rfingers 7.12502
rthumb 16.0295 -61.5793
lclavicle 1.37658e-014 -3.4191e-014
lhumerus -30.0722 -12.8393 87.2571
lradius 31.0515
lwrist -5.10577
lhand -17.3043 -22.391
lfingers 7.12502
lthumb 8.94172 7.39955
rfemur 4.41868 -2.30882 3.66787
rtibia 56.6656
rfoot -0.503495 -3.96961
rtoes 22.2217
lfemur 5.96174 7.97322 -30.6141
ltibia 4.832
lfoot -6.22013 0.845339
ltoes 13.3574
673
root 24.5786 17.046 -0.347222 606.871 100.281 611.931
lowerback 4.87041 2.51863 -11.1738
upperback 1.02557 2.84995 -3.53821
thorax -2.01541 1.53344 2.35894
lowerneck -22.7578 2.39481 3.38803
upperneck 17.2023 2.42896 -1.13341
head 9.20451 1.23679 -0.594302
rclavicle 1.78999e-014 -1.70955e-014
rhumerus -39.3505 11.6354 -92.7996
rradius 30.8308
rwrist 4.03197
rhand -10.3465 -32.2847
rfingers 7.12502
rthumb 15.65 -61.6717
lclavicle 1.78999e-014 -1.70955e-014
lhumerus -29.3951 -13.3555 87.3216
lradius 31.4196
lwrist -4.5182
lhand -17.6112 -22.5214
lfingers 7.12502
lthumb 8.64558 7.28155
rfemur 3.20277 -2.61666 3.31701
rtibia 57.5576
rfoot -0.839696 -3.57965
rtoes 21.6086
lfemur 6.50734 8.05854 -30.9723
ltibia 4.69442
lfoot -6.42261 0.751708
ltoes 12.6588
674
root 24.6748 17.0516 -0.362975 606.306 100.034 611.379
lowerback 4.98858 2.40504 -11.0153
upperback 0.983844 2.6805 -3.37366
thorax -2.10648 1.45056 2.45138
lowerneck -22.8207 2.51696 3.68807
upperneck 17.4077 2.55487 -1.38769
head 9.29824 1.28725 -0.711809
rclavicle -1.37938e-014 -6.71892e-014
rhumerus -39.5607 11.1845 -92.3737
rradius 30.4403
rwrist 3.64767
rhand -10.8032 -32.3327
rfingers 7.12502
rthumb 15.2101 -61.7536
lclavicle -1.37938e-014 -6.71892e-014
lhumerus -28.9769 -13.7644 87.3955
lradius 31.7428
lwrist -4.29247
lhand -17.977 -22.8574
lfingers 7.12502
lthumb 8.29254 6.95981
rfemur 1.76938 -2.74203 3.78267
rtibia 58.4416
rfoot -1.4085 -3.35637
rtoes 22.2767
lfemur 6.99892 7.98374 -30.6818
ltibia 4.53503
lfoot -6.78653 0.728689
ltoes 10.7889
675
root 24.7702 17.0587 -0.381701 606.905 100.015 611.995
lowerback 5.13926 2.27753 -11.07
upperback 0.920944 2.47914 -3.33157
thorax -2.23645 1.358 2.53387
lowerneck -22.6903 2.65321 3.76865
upperneck 17.5008 2.71188 -1.33512
head 9.31297 1.37385 -0.68449
rclavicle 3.30169e-015 -1.19271e-015
rhumerus -39.8342 10.5578 -91.9032
rradius 30.0812
rwrist 3.67797
rhand -11.3462 -32.1524
rfingers 7.12502
rthumb 14.687 -61.6122
lclavicle 3.30169e-015 -1.19271e-015
lhumerus -28.6235 -14.2479 87.4512
lradius 32.1278
lwrist -4.09319
lhand -18.2011 -23.0854
lfingers 7.12502
lthumb 8.07625 6.74031
rfemur 0.494973 -2.9722 3.82613
rtibia 59.0601
rfoot -2.35681 -2.96542
rtoes 22.8599
lfemur 7.44235 7.91275 -30.7846
ltibia 4.45589
lfoot -7.12099 0.620875
ltoes 9.4828
676
root 24.8666 17.0644 -0.396569 608.103 100.401 613.253
lowerback 5.2006 2.17718 -11.6109
upperback 0.939169 2.31388 -3.38734
thorax -2.24796 1.28239 2.7829
lowerneck -22.5412 2.85064 3.88375
upperneck 17.4472 2.93256 -1.24978
head 9.2749 1.49525 -0.64288
rclavicle 3.3576e-015 3.22031e-014
rhumerus -40.0827 9.74311 -91.3275
rradius 29.9825
rwrist 3.95124
rhand -11.4536 -32.3121
rfingers 7.12502
rthumb 14.5835 -61.7794
lclavicle 3.3576e-015 3.22031e-014
lhumerus -28.1339 -14.8717 87.4982
lradius 32.5141
lwrist -3.58791
lhand -18.1804 -23.0409
lfingers 7.12502
lthumb 8.09627 6.78397
rfemur -0.723094 -3.216 3.36471
rtibia 59.5857
rfoot -3.57066 -2.35227
rtoes 20.943
lfemur 7.87107 8.00145 -31.3226
ltibia 4.36849
lfoot -7.33389 0.506731
ltoes 9.0036
677
root 24.9687 17.0701 -0.41032 609.549 100.649 614.829
lowerback 5.26497 2.03538 -12.0471
upperback 1.01574 2.1035 -3.38995
thorax -2.18881 1.17768 3.03561
lowerneck -22.4205 2.99644 4.02427
upperneck 17.3741 3.1089 -1.32732
head 9.23692 1.57825 -0.668415
rclavicle -8.92978e-015 3.4191e-014
rhumerus -40.2757 9.11807 -90.8045
rradius 29.9248
rwrist 3.96996
rhand -11.0582 -32.7945
rfingers 7.12502
rthumb 14.9645 -62.2339
lclavicle -8.92978e-015 3.4191e-014
lhumerus -27.6293 -15.43 87.5534
lradius 32.9278
lwrist -3.03364
lhand -18.2405 -23.0465
lfingers 7.12502
lthumb 8.03818 6.78061
rfemur -1.77316 -3.52215 3.04069
rtibia 59.985
rfoot -4.81663 -1.7676
rtoes 17.8151
lfemur 8.43756 8.08138 -31.7222
ltibia 4.22529
lfoot -7.53403 0.3161
ltoes 8.28979
678
root 25.0715 17.0734 -0.423603 610.783 100.651 616.186
lowerback 5.36149 1.86842 -12.2302
upperback 1.08315 1.86429 -3.32157
thorax -2.14524 1.05594 3.22584
lowerneck -22.4726 3.06301 4.20872
upperneck 17.504 3.18579 -1.5326
head 9.30052 1.60331 -0.757213
rclavicle -1.62724e-014 9.42239e-014
rhumerus -40.4144 8.82295 -90.3896
rradius 29.7286
rwrist 3.76413
rhand -10.6464 -32.9534
rfingers 7.12502
rthumb 15.3611 -62.3628
lclavicle -1.62724e-014 9.42239e-014
lhumerus -27.1923 -15.7956 87.5716
lradius 33.3764
lwrist -2.90998
lhand -18.3537 -22.9962
lfingers 7.12502
lthumb 7.929 6.83508
rfemur -2.6825 -3.77815 3.05712
rtibia 60.0375
rfoot -5.97973 -1.48492
rtoes 15.8441
lfemur 9.03595 7.93336 -31.8833
ltibia 4.09485
lfoot -7.80874 0.228071
ltoes 8.53284
679
root 25.1644 17.0734 -0.437018 611.718 100.701 617.211
lowerback 5.46629 1.71923 -12.4536
upperback 1.16731 1.6471 -3.25698
thorax -2.09049 0.944253 3.43246
lowerneck -22.8054 3.09505 4.4645
upperneck 17.8071 3.20147 -1.83316
head 9.47547 1.59239 -0.896663
rclavicle 2.33261e-015 1.59028e-014
rhumerus -40.4355 8.57013 -89.9598
rradius 29.4896
rwrist 3.63179
rhand -10.4302 -32.8199
rfingers 7.12502
rthumb 15.5693 -62.2133
lclavicle 2.33261e-015 1.59028e-014
lhumerus -26.5695 -16.1566 87.5085
lradius 33.6987
lwrist -3.04446
lhand -18.2828 -22.7247
lfingers 7.12502
lthumb 7.99739 7.10395
rfemur -3.71065 -3.96045 3.07796
rtibia 59.961
rfoot -6.98684 -1.37915
rtoes 14.1819
lfemur 9.53472 7.61918 -32.1205
ltibia 4.0079
lfoot -8.10939 0.388012
ltoes 9.09765
680
root 25.2588 17.0728 -0.449601 612.519 100.731 618.121
lowerback 5.59267 1.58529 -12.6169
upperback 1.2477 1.44925 -3.20263
thorax -2.05101 0.842494 3.59356
lowerneck -22.0231 3.40825 4.1947
upperneck 17.0145 3.64276 -1.37317
head 9.06205 1.83379 -0.641274
rclavicle -2.16877e-014 -2.5842e-014
rhumerus -40.6364 8.17514 -89.5274
rradius 29.5482
rwrist 3.45546
rhand -10.4512 -32.7694
rfingers 7.12502
rthumb 15.5491 -62.1643
lclavicle -2.16877e-014 -2.5842e-014
lhumerus -25.882 -16.551 87.4266
lradius 33.9454
lwrist -3.04109
lhand -18.1183 -22.6071
lfingers 7.12502
lthumb 8.15611 7.21549
rfemur -4.74724 -4.06259 3.14279
rtibia 59.836
rfoot -7.84752 -1.37064
rtoes 13.7804
lfemur 10.075 7.45916 -32.2788
ltibia 3.87144
lfoot -8.30899 0.503694
ltoes 8.79159
681
root 25.3538 17.0745 -0.458772 613.302 100.741 618.968
lowerback 5.74411 1.48146 -12.7731
upperback 1.28016 1.28157 -3.13731
thorax -2.07989 0.760511 3.75865
lowerneck -22.4061 3.52208 4.65143
upperneck 17.4072 3.76766 -1.95548
head 9.2909 1.85477 -0.891574
rclavicle 2.0391e-015 -4.41302e-014
rhumerus -40.9851 7.81475 -89.1318
rradius 29.748
rwrist 3.11333
rhand -10.5265 -32.8097
rfingers 7.12502
rthumb 15.4766 -62.2102
lclavicle 2.0391e-015 -4.41302e-014
lhumerus -25.3455 -17.0082 87.4248
lradius 34.2779
lwrist -2.99344
lhand -18.011 -22.6061
lfingers 7.12502
lthumb 8.25972 7.21239
rfemur -5.80496 -4.1054 3.27092
rtibia 59.6234
rfoot -8.78286 -1.41306
rtoes 14.8306
lfemur 10.5599 7.39256 -32.344
ltibia 3.71061
lfoot -8.45918 0.451387
ltoes 8.92458
